<svg width="241" height="68" viewBox="0 0 241 68" fill="none" xmlns="http://www.w3.org/2000/svg">
<path d="M24.4073 35.296C24.8233 35.296 25.1433 35.488 25.3673 35.872C25.6233 36.256 25.7513 36.784 25.7513 37.456C25.7513 38.736 25.4473 39.728 24.8393 40.432C23.4633 42.128 21.9593 43.52 20.3273 44.608C18.6953 45.696 16.8233 46.24 14.7113 46.24C8.18331 46.24 4.91931 41.648 4.91931 32.464C4.91931 31.056 4.96731 29.632 5.06331 28.192H3.19131C2.23131 28.192 1.57531 28.016 1.22331 27.664C0.903313 27.312 0.743313 26.752 0.743313 25.984C0.743313 24.192 1.46331 23.296 2.90331 23.296H5.63931C6.18331 19.776 7.01531 16.56 8.13531 13.648C9.25531 10.736 10.5993 8.416 12.1673 6.688C13.7673 4.96 15.4793 4.096 17.3033 4.096C18.6473 4.096 19.7033 4.688 20.4713 5.872C21.2393 7.056 21.6233 8.544 21.6233 10.336C21.6233 15.296 19.5433 19.616 15.3833 23.296H20.7593C21.2713 23.296 21.6393 23.408 21.8633 23.632C22.0873 23.856 22.1993 24.272 22.1993 24.88C22.1993 27.088 20.3913 28.192 16.7753 28.192H10.9193C10.8553 29.792 10.8233 31.04 10.8233 31.936C10.8233 35.264 11.2073 37.6 11.9753 38.944C12.7753 40.288 14.0233 40.96 15.7193 40.96C17.0953 40.96 18.3113 40.544 19.3673 39.712C20.4233 38.88 21.6713 37.632 23.1113 35.968C23.4953 35.52 23.9273 35.296 24.4073 35.296ZM16.0073 8.704C15.5273 8.704 14.9833 9.312 14.3753 10.528C13.7993 11.712 13.2393 13.376 12.6953 15.52C12.1833 17.632 11.7513 19.984 11.3993 22.576C13.2873 20.944 14.6953 19.12 15.6233 17.104C16.5833 15.056 17.0633 13.2 17.0633 11.536C17.0633 9.648 16.7113 8.704 16.0073 8.704ZM26.7391 46.24C25.2991 46.24 24.1151 45.584 23.1871 44.272C22.2911 42.928 21.8431 41.264 21.8431 39.28C21.8431 36.88 22.0031 34.688 22.3231 32.704C22.6431 30.688 23.1711 28.56 23.9071 26.32C24.2271 25.36 24.6751 24.672 25.2511 24.256C25.8271 23.84 26.7391 23.632 27.9871 23.632C28.6911 23.632 29.1711 23.744 29.4271 23.968C29.7151 24.192 29.8591 24.528 29.8591 24.976C29.8591 25.232 29.6831 26.096 29.3311 27.568C29.0111 28.752 28.7551 29.824 28.5631 30.784C27.9231 34.144 27.6031 36.384 27.6031 37.504C27.6031 38.176 27.6831 38.656 27.8431 38.944C28.0031 39.2 28.2591 39.328 28.6111 39.328C29.0911 39.328 29.6831 38.848 30.3871 37.888C31.1231 36.928 31.8911 35.472 32.6911 33.52C33.5231 31.568 34.3231 29.168 35.0911 26.32C35.3471 25.36 35.7311 24.672 36.2431 24.256C36.7871 23.84 37.5871 23.632 38.6431 23.632C39.3791 23.632 39.8911 23.728 40.1791 23.92C40.4671 24.08 40.6111 24.4 40.6111 24.88C40.6111 25.68 40.2111 27.872 39.4111 31.456C38.5151 35.552 38.0671 38.08 38.0671 39.04C38.0671 39.648 38.1951 40.128 38.4511 40.48C38.7071 40.8 39.0431 40.96 39.4591 40.96C40.0991 40.96 40.8511 40.576 41.7151 39.808C42.6111 39.008 43.7951 37.728 45.2671 35.968C45.6511 35.52 46.0831 35.296 46.5631 35.296C46.9791 35.296 47.2991 35.488 47.5231 35.872C47.7791 36.256 47.9071 36.784 47.9071 37.456C47.9071 38.736 47.6031 39.728 46.9951 40.432C45.6191 42.128 44.1311 43.52 42.5311 44.608C40.9631 45.696 39.1711 46.24 37.1551 46.24C35.6191 46.24 34.4831 45.648 33.7471 44.464C33.0431 43.28 32.6911 41.616 32.6911 39.472C32.1471 41.648 31.3311 43.328 30.2431 44.512C29.1551 45.664 27.9871 46.24 26.7391 46.24ZM63.4069 30.208C64.1109 30.208 64.7029 30.464 65.1829 30.976C65.6949 31.456 65.9509 32.064 65.9509 32.8C65.9509 33.216 65.8549 33.664 65.6629 34.144C65.1509 35.328 64.4309 36.32 63.5029 37.12C62.5749 37.92 61.5509 38.32 60.4309 38.32C59.5349 38.32 58.7669 38 58.1269 37.36C57.5189 36.72 57.2149 35.856 57.2149 34.768C57.2149 34.16 57.2469 33.504 57.3109 32.8C57.3749 32.288 57.4069 31.936 57.4069 31.744C57.4069 31.488 57.3429 31.296 57.2149 31.168C57.1189 31.04 56.9909 30.976 56.8309 30.976C56.3829 30.976 55.7749 31.52 55.0069 32.608C54.2389 33.664 53.4709 35.072 52.7029 36.832C51.9349 38.592 51.3109 40.448 50.8309 42.4C50.4789 43.936 50.0789 44.96 49.6309 45.472C49.1829 45.984 48.4469 46.24 47.4229 46.24C46.2069 46.24 45.3429 45.6 44.8309 44.32C44.3509 43.04 44.1109 40.992 44.1109 38.176C44.1109 34.016 44.7029 30.064 45.8869 26.32C46.1749 25.392 46.6389 24.72 47.2789 24.304C47.9509 23.856 48.8789 23.632 50.0629 23.632C50.7029 23.632 51.1509 23.712 51.4069 23.872C51.6629 24.032 51.7909 24.336 51.7909 24.784C51.7909 25.296 51.5509 26.448 51.0709 28.24C50.7509 29.52 50.4949 30.64 50.3029 31.6C50.1109 32.56 49.9509 33.744 49.8229 35.152C50.8789 32.4 52.0629 30.16 53.3749 28.432C54.6869 26.704 55.9669 25.472 57.2149 24.736C58.4629 24 59.5989 23.632 60.6229 23.632C61.5509 23.632 62.2549 23.904 62.7349 24.448C63.2469 24.96 63.5029 25.728 63.5029 26.752C63.5029 27.36 63.3269 28.512 62.9749 30.208H63.4069ZM89.1886 35.296C89.6046 35.296 89.9246 35.488 90.1486 35.872C90.4046 36.256 90.5326 36.784 90.5326 37.456C90.5326 38.736 90.2286 39.728 89.6206 40.432C88.2446 42.128 86.7406 43.52 85.1086 44.608C83.4766 45.696 81.6046 46.24 79.4926 46.24C72.9646 46.24 69.7006 41.648 69.7006 32.464C69.7006 31.056 69.7486 29.632 69.8446 28.192H67.9726C67.0126 28.192 66.3566 28.016 66.0046 27.664C65.6846 27.312 65.5246 26.752 65.5246 25.984C65.5246 24.192 66.2446 23.296 67.6846 23.296H70.4206C70.9646 19.776 71.7966 16.56 72.9166 13.648C74.0366 10.736 75.3806 8.416 76.9486 6.688C78.5486 4.96 80.2606 4.096 82.0846 4.096C83.4286 4.096 84.4846 4.688 85.2526 5.872C86.0206 7.056 86.4046 8.544 86.4046 10.336C86.4046 15.296 84.3246 19.616 80.1646 23.296H85.5406C86.0526 23.296 86.4206 23.408 86.6446 23.632C86.8686 23.856 86.9806 24.272 86.9806 24.88C86.9806 27.088 85.1726 28.192 81.5566 28.192H75.7006C75.6366 29.792 75.6046 31.04 75.6046 31.936C75.6046 35.264 75.9886 37.6 76.7566 38.944C77.5566 40.288 78.8046 40.96 80.5006 40.96C81.8766 40.96 83.0926 40.544 84.1486 39.712C85.2046 38.88 86.4526 37.632 87.8926 35.968C88.2766 35.52 88.7086 35.296 89.1886 35.296ZM80.7886 8.704C80.3086 8.704 79.7646 9.312 79.1566 10.528C78.5806 11.712 78.0206 13.376 77.4766 15.52C76.9646 17.632 76.5326 19.984 76.1806 22.576C78.0686 20.944 79.4766 19.12 80.4046 17.104C81.3646 15.056 81.8446 13.2 81.8446 11.536C81.8446 9.648 81.4926 8.704 80.7886 8.704ZM104.816 35.296C105.232 35.296 105.552 35.488 105.776 35.872C106.032 36.256 106.16 36.784 106.16 37.456C106.16 38.736 105.856 39.728 105.248 40.432C103.872 42.128 102.368 43.52 100.736 44.608C99.1363 45.696 97.3123 46.24 95.2643 46.24C92.4483 46.24 90.3523 44.96 88.9763 42.4C87.6323 39.84 86.9603 36.528 86.9603 32.464C86.9603 28.56 87.4563 24.112 88.4483 19.12C89.4723 14.128 90.9603 9.84 92.9123 6.256C94.8963 2.672 97.2483 0.879997 99.9683 0.879997C101.504 0.879997 102.704 1.6 103.568 3.04C104.464 4.448 104.912 6.48 104.912 9.136C104.912 12.944 103.856 17.36 101.744 22.384C99.6323 27.408 96.7683 32.384 93.1523 37.312C93.3763 38.624 93.7443 39.568 94.2563 40.144C94.7683 40.688 95.4403 40.96 96.2723 40.96C97.5843 40.96 98.7363 40.592 99.7283 39.856C100.72 39.088 101.984 37.792 103.52 35.968C103.904 35.52 104.336 35.296 104.816 35.296ZM98.9123 5.632C98.1763 5.632 97.3443 6.96 96.4163 9.616C95.4883 12.272 94.6723 15.568 93.9683 19.504C93.2643 23.44 92.8803 27.216 92.8163 30.832C95.0883 27.088 96.8963 23.344 98.2403 19.6C99.5843 15.824 100.256 12.384 100.256 9.28C100.256 6.848 99.8083 5.632 98.9123 5.632ZM119.465 36.736C119.881 36.736 120.201 36.928 120.425 37.312C120.681 37.696 120.809 38.224 120.809 38.896C120.809 40.048 120.537 41.04 119.993 41.872C119.097 43.248 117.913 44.32 116.441 45.088C115.001 45.856 113.273 46.24 111.257 46.24C108.185 46.24 105.801 45.328 104.105 43.504C102.409 41.648 101.561 39.152 101.561 36.016C101.561 33.808 102.025 31.76 102.953 29.872C103.881 27.952 105.161 26.432 106.793 25.312C108.457 24.192 110.329 23.632 112.409 23.632C114.265 23.632 115.753 24.192 116.873 25.312C117.993 26.4 118.553 27.888 118.553 29.776C118.553 31.984 117.753 33.888 116.153 35.488C114.585 37.056 111.897 38.304 108.089 39.232C108.857 40.704 110.153 41.44 111.977 41.44C113.289 41.44 114.361 41.136 115.193 40.528C116.057 39.92 117.049 38.896 118.169 37.456C118.553 36.976 118.985 36.736 119.465 36.736ZM111.593 28.336C110.409 28.336 109.401 29.024 108.569 30.4C107.769 31.776 107.369 33.44 107.369 35.392V35.488C109.257 35.04 110.745 34.368 111.833 33.472C112.921 32.576 113.465 31.536 113.465 30.352C113.465 29.744 113.289 29.264 112.937 28.912C112.617 28.528 112.169 28.336 111.593 28.336Z" fill="black"/>
<path d="M125.423 46.24C124.207 46.24 123.343 45.6 122.831 44.32C122.351 43.04 122.111 40.992 122.111 38.176C122.111 34.016 122.703 30.064 123.887 26.32C124.175 25.392 124.639 24.72 125.279 24.304C125.951 23.856 126.879 23.632 128.063 23.632C128.703 23.632 129.151 23.712 129.407 23.872C129.663 24.032 129.791 24.336 129.791 24.784C129.791 25.296 129.551 26.448 129.071 28.24C128.751 29.52 128.495 30.64 128.303 31.6C128.111 32.528 127.951 33.696 127.823 35.104C128.687 32.608 129.711 30.496 130.895 28.768C132.111 27.04 133.343 25.76 134.591 24.928C135.871 24.064 137.071 23.632 138.191 23.632C139.311 23.632 140.095 23.888 140.543 24.4C141.023 24.912 141.263 25.696 141.263 26.752C141.263 27.776 140.959 29.632 140.351 32.32C140.095 33.472 139.919 34.336 139.823 34.912C141.423 30.976 143.199 28.112 145.151 26.32C147.103 24.528 148.927 23.632 150.623 23.632C152.703 23.632 153.743 24.672 153.743 26.752C153.743 28 153.391 30.256 152.687 33.52C152.079 36.304 151.775 38.144 151.775 39.04C151.775 40.32 152.239 40.96 153.167 40.96C153.807 40.96 154.559 40.576 155.423 39.808C156.319 39.008 157.503 37.728 158.975 35.968C159.359 35.52 159.791 35.296 160.271 35.296C160.687 35.296 161.007 35.488 161.231 35.872C161.487 36.256 161.615 36.784 161.615 37.456C161.615 38.736 161.311 39.728 160.703 40.432C159.327 42.128 157.839 43.52 156.239 44.608C154.671 45.696 152.879 46.24 150.863 46.24C149.231 46.24 147.999 45.776 147.167 44.848C146.335 43.888 145.919 42.512 145.919 40.72C145.919 39.824 146.143 38.224 146.591 35.92C147.007 33.904 147.215 32.512 147.215 31.744C147.215 31.232 147.039 30.976 146.687 30.976C146.271 30.976 145.679 31.52 144.911 32.608C144.143 33.664 143.375 35.072 142.607 36.832C141.839 38.592 141.215 40.448 140.735 42.4C140.383 43.936 139.967 44.96 139.487 45.472C139.039 45.984 138.303 46.24 137.279 46.24C136.223 46.24 135.423 45.744 134.879 44.752C134.367 43.728 134.111 42.496 134.111 41.056C134.111 39.84 134.271 38.08 134.591 35.776C134.847 33.728 134.975 32.384 134.975 31.744C134.975 31.232 134.799 30.976 134.447 30.976C133.967 30.976 133.359 31.552 132.623 32.704C131.887 33.856 131.167 35.328 130.463 37.12C129.791 38.912 129.247 40.672 128.831 42.4C128.479 43.904 128.063 44.928 127.583 45.472C127.135 45.984 126.415 46.24 125.423 46.24ZM182.214 31.264C182.63 31.264 182.95 31.472 183.174 31.888C183.398 32.304 183.51 32.832 183.51 33.472C183.51 35.008 183.046 35.92 182.118 36.208C180.198 36.88 178.086 37.264 175.782 37.36C175.174 40.048 173.974 42.208 172.182 43.84C170.39 45.44 168.358 46.24 166.086 46.24C164.166 46.24 162.518 45.776 161.142 44.848C159.798 43.92 158.774 42.688 158.07 41.152C157.366 39.616 157.014 37.952 157.014 36.16C157.014 33.728 157.478 31.568 158.406 29.68C159.334 27.76 160.614 26.272 162.246 25.216C163.878 24.128 165.686 23.584 167.67 23.584C170.102 23.584 172.054 24.432 173.526 26.128C175.03 27.792 175.91 29.856 176.166 32.32C177.67 32.224 179.462 31.904 181.542 31.36C181.798 31.296 182.022 31.264 182.214 31.264ZM166.47 41.152C167.494 41.152 168.374 40.736 169.11 39.904C169.878 39.072 170.39 37.872 170.646 36.304C169.654 35.632 168.886 34.752 168.342 33.664C167.83 32.576 167.574 31.424 167.574 30.208C167.574 29.696 167.622 29.184 167.718 28.672H167.478C166.198 28.672 165.126 29.296 164.262 30.544C163.43 31.76 163.014 33.488 163.014 35.728C163.014 37.488 163.35 38.832 164.022 39.76C164.726 40.688 165.542 41.152 166.47 41.152ZM182.798 46.24C181.582 46.24 180.718 45.6 180.206 44.32C179.726 43.04 179.486 40.992 179.486 38.176C179.486 34.016 180.078 30.064 181.262 26.32C181.55 25.392 182.014 24.72 182.654 24.304C183.326 23.856 184.254 23.632 185.438 23.632C186.078 23.632 186.526 23.712 186.782 23.872C187.038 24.032 187.166 24.336 187.166 24.784C187.166 25.296 186.926 26.448 186.446 28.24C186.126 29.52 185.87 30.64 185.678 31.6C185.486 32.56 185.326 33.744 185.198 35.152C186.254 32.4 187.438 30.16 188.75 28.432C190.062 26.704 191.342 25.472 192.59 24.736C193.87 24 195.038 23.632 196.094 23.632C198.174 23.632 199.214 24.672 199.214 26.752C199.214 28 198.862 30.256 198.158 33.52C197.55 36.304 197.246 38.144 197.246 39.04C197.246 40.32 197.71 40.96 198.638 40.96C199.278 40.96 200.03 40.576 200.894 39.808C201.79 39.008 202.974 37.728 204.446 35.968C204.83 35.52 205.262 35.296 205.742 35.296C206.158 35.296 206.478 35.488 206.702 35.872C206.958 36.256 207.086 36.784 207.086 37.456C207.086 38.736 206.782 39.728 206.174 40.432C204.798 42.128 203.31 43.52 201.71 44.608C200.142 45.696 198.35 46.24 196.334 46.24C194.702 46.24 193.47 45.776 192.638 44.848C191.806 43.888 191.39 42.512 191.39 40.72C191.39 39.824 191.614 38.224 192.062 35.92C192.478 33.904 192.686 32.512 192.686 31.744C192.686 31.232 192.51 30.976 192.158 30.976C191.742 30.976 191.15 31.52 190.382 32.608C189.646 33.664 188.878 35.072 188.078 36.832C187.31 38.592 186.686 40.448 186.206 42.4C185.854 43.904 185.438 44.928 184.958 45.472C184.51 45.984 183.79 46.24 182.798 46.24ZM224.61 35.296C225.026 35.296 225.346 35.488 225.57 35.872C225.826 36.256 225.954 36.784 225.954 37.456C225.954 38.736 225.65 39.728 225.042 40.432C223.858 41.872 222.178 43.2 220.002 44.416C217.858 45.632 215.554 46.24 213.09 46.24C209.73 46.24 207.122 45.328 205.266 43.504C203.41 41.68 202.482 39.184 202.482 36.016C202.482 33.808 202.946 31.76 203.874 29.872C204.802 27.952 206.082 26.432 207.714 25.312C209.378 24.192 211.25 23.632 213.33 23.632C215.186 23.632 216.674 24.192 217.794 25.312C218.914 26.4 219.474 27.888 219.474 29.776C219.474 31.984 218.674 33.888 217.074 35.488C215.506 37.056 212.834 38.304 209.058 39.232C209.858 40.704 211.378 41.44 213.618 41.44C215.058 41.44 216.69 40.944 218.514 39.952C220.37 38.928 221.97 37.6 223.314 35.968C223.698 35.52 224.13 35.296 224.61 35.296ZM212.514 28.336C211.33 28.336 210.322 29.024 209.49 30.4C208.69 31.776 208.29 33.44 208.29 35.392V35.488C210.178 35.04 211.666 34.368 212.754 33.472C213.842 32.576 214.386 31.536 214.386 30.352C214.386 29.744 214.21 29.264 213.858 28.912C213.538 28.528 213.09 28.336 212.514 28.336ZM238.846 23.632C239.582 23.632 240.094 23.728 240.382 23.92C240.67 24.112 240.814 24.432 240.814 24.88C240.814 25.648 240.398 28.384 239.566 33.088C238.83 37.6 238.398 40.272 238.27 41.104C237.086 49.328 235.454 55.84 233.374 60.64C231.294 65.44 228.526 67.84 225.07 67.84C223.438 67.84 222.11 67.328 221.086 66.304C220.062 65.312 219.55 64 219.55 62.368C219.55 60.864 219.886 59.328 220.558 57.76C221.262 56.192 222.542 54.384 224.398 52.336C226.286 50.32 228.942 48 232.366 45.376L232.51 44.272C232.734 43.088 232.99 41.392 233.278 39.184C232.638 41.488 231.742 43.248 230.59 44.464C229.438 45.648 228.222 46.24 226.942 46.24C225.502 46.24 224.318 45.584 223.39 44.272C222.494 42.928 222.046 41.264 222.046 39.28C222.046 36.88 222.206 34.688 222.526 32.704C222.846 30.688 223.374 28.56 224.11 26.32C224.43 25.36 224.878 24.672 225.454 24.256C226.03 23.84 226.942 23.632 228.19 23.632C228.894 23.632 229.374 23.744 229.63 23.968C229.918 24.192 230.062 24.528 230.062 24.976C230.062 25.232 229.886 26.096 229.534 27.568C229.214 28.752 228.958 29.824 228.766 30.784C228.51 32.096 228.286 33.36 228.094 34.576C227.902 35.76 227.806 36.736 227.806 37.504C227.806 38.72 228.142 39.328 228.814 39.328C229.294 39.328 229.886 38.848 230.59 37.888C231.326 36.928 232.094 35.472 232.894 33.52C233.726 31.568 234.526 29.168 235.294 26.32C235.55 25.36 235.934 24.672 236.446 24.256C236.99 23.84 237.79 23.632 238.846 23.632ZM225.598 63.184C226.398 63.184 227.294 62.256 228.286 60.4C229.278 58.544 230.27 55.456 231.262 51.136C228.798 53.216 227.006 55.104 225.886 56.8C224.798 58.528 224.254 60.032 224.254 61.312C224.254 61.856 224.35 62.304 224.542 62.656C224.766 63.008 225.118 63.184 225.598 63.184Z" fill="#3A3A3A"/>
</svg>
