<svg width="364" height="87" viewBox="0 0 364 87" fill="none" xmlns="http://www.w3.org/2000/svg">
<path d="M149.741 56.728C150.296 56.728 150.722 56.984 151.021 57.496C151.362 58.008 151.533 58.712 151.533 59.608C151.533 61.3147 151.128 62.6373 150.317 63.576C148.482 65.8373 146.477 67.6933 144.301 69.144C142.125 70.5947 139.629 71.32 136.813 71.32C128.109 71.32 123.757 65.1973 123.757 52.952C123.757 51.0747 123.821 49.176 123.949 47.256H121.453C120.173 47.256 119.298 47.0213 118.829 46.552C118.402 46.0827 118.189 45.336 118.189 44.312C118.189 41.9227 119.149 40.728 121.069 40.728H124.717C125.442 36.0347 126.552 31.7467 128.045 27.864C129.538 23.9813 131.33 20.888 133.421 18.584C135.554 16.28 137.837 15.128 140.269 15.128C142.061 15.128 143.469 15.9173 144.493 17.496C145.517 19.0747 146.029 21.0587 146.029 23.448C146.029 30.0613 143.256 35.8213 137.709 40.728H144.877C145.56 40.728 146.05 40.8773 146.349 41.176C146.648 41.4747 146.797 42.0293 146.797 42.84C146.797 45.784 144.386 47.256 139.565 47.256H131.757C131.672 49.3893 131.629 51.0533 131.629 52.248C131.629 56.6853 132.141 59.8 133.165 61.592C134.232 63.384 135.896 64.28 138.157 64.28C139.992 64.28 141.613 63.7253 143.021 62.616C144.429 61.5067 146.093 59.8427 148.013 57.624C148.525 57.0267 149.101 56.728 149.741 56.728ZM138.541 21.272C137.901 21.272 137.176 22.0827 136.365 23.704C135.597 25.2827 134.85 27.5013 134.125 30.36C133.442 33.176 132.866 36.312 132.397 39.768C134.914 37.592 136.792 35.16 138.029 32.472C139.309 29.7413 139.949 27.2667 139.949 25.048C139.949 22.5307 139.48 21.272 138.541 21.272ZM152.85 71.32C150.93 71.32 149.351 70.4453 148.114 68.696C146.919 66.904 146.322 64.6853 146.322 62.04C146.322 58.84 146.535 55.9173 146.962 53.272C147.389 50.584 148.093 47.7467 149.074 44.76C149.501 43.48 150.098 42.5627 150.866 42.008C151.634 41.4533 152.85 41.176 154.514 41.176C155.453 41.176 156.093 41.3253 156.434 41.624C156.818 41.9227 157.01 42.3707 157.01 42.968C157.01 43.3093 156.775 44.4613 156.306 46.424C155.879 48.0027 155.538 49.432 155.282 50.712C154.429 55.192 154.002 58.1787 154.002 59.672C154.002 60.568 154.109 61.208 154.322 61.592C154.535 61.9333 154.877 62.104 155.346 62.104C155.986 62.104 156.775 61.464 157.714 60.184C158.695 58.904 159.719 56.9627 160.786 54.36C161.895 51.7573 162.962 48.5573 163.986 44.76C164.327 43.48 164.839 42.5627 165.522 42.008C166.247 41.4533 167.314 41.176 168.722 41.176C169.703 41.176 170.386 41.304 170.77 41.56C171.154 41.7733 171.346 42.2 171.346 42.84C171.346 43.9067 170.813 46.8293 169.746 51.608C168.551 57.0693 167.954 60.44 167.954 61.72C167.954 62.5307 168.125 63.1707 168.466 63.64C168.807 64.0667 169.255 64.28 169.81 64.28C170.663 64.28 171.666 63.768 172.818 62.744C174.013 61.6773 175.591 59.9707 177.554 57.624C178.066 57.0267 178.642 56.728 179.282 56.728C179.837 56.728 180.263 56.984 180.562 57.496C180.903 58.008 181.074 58.712 181.074 59.608C181.074 61.3147 180.669 62.6373 179.858 63.576C178.023 65.8373 176.039 67.6933 173.906 69.144C171.815 70.5947 169.426 71.32 166.738 71.32C164.69 71.32 163.175 70.5307 162.194 68.952C161.255 67.3733 160.786 65.1547 160.786 62.296C160.061 65.1973 158.973 67.4373 157.522 69.016C156.071 70.552 154.514 71.32 152.85 71.32ZM201.741 49.944C202.679 49.944 203.469 50.2853 204.109 50.968C204.791 51.608 205.132 52.4187 205.132 53.4C205.132 53.9547 205.005 54.552 204.749 55.192C204.066 56.7707 203.106 58.0933 201.869 59.16C200.631 60.2267 199.266 60.76 197.773 60.76C196.578 60.76 195.554 60.3333 194.701 59.48C193.89 58.6267 193.485 57.4747 193.485 56.024C193.485 55.2133 193.527 54.3387 193.613 53.4C193.698 52.7173 193.741 52.248 193.741 51.992C193.741 51.6507 193.655 51.3947 193.485 51.224C193.357 51.0533 193.186 50.968 192.973 50.968C192.375 50.968 191.565 51.6933 190.541 53.144C189.517 54.552 188.493 56.4293 187.469 58.776C186.445 61.1227 185.613 63.5973 184.973 66.2C184.503 68.248 183.97 69.6133 183.373 70.296C182.775 70.9787 181.794 71.32 180.429 71.32C178.807 71.32 177.655 70.4667 176.973 68.76C176.333 67.0533 176.013 64.3227 176.013 60.568C176.013 55.0213 176.802 49.752 178.381 44.76C178.765 43.5227 179.383 42.6267 180.237 42.072C181.133 41.4747 182.37 41.176 183.949 41.176C184.802 41.176 185.399 41.2827 185.741 41.496C186.082 41.7093 186.253 42.1147 186.253 42.712C186.253 43.3947 185.933 44.9307 185.293 47.32C184.866 49.0267 184.525 50.52 184.269 51.8C184.013 53.08 183.799 54.6587 183.629 56.536C185.037 52.8667 186.615 49.88 188.365 47.576C190.114 45.272 191.821 43.6293 193.485 42.648C195.149 41.6667 196.663 41.176 198.029 41.176C199.266 41.176 200.205 41.5387 200.845 42.264C201.527 42.9467 201.869 43.9707 201.869 45.336C201.869 46.1467 201.634 47.6827 201.165 49.944H201.741ZM218.132 47.256C218.047 49.3893 218.004 51.0533 218.004 52.248C218.004 55.32 218.153 57.7307 218.452 59.48C218.793 61.1867 219.327 62.424 220.052 63.192C220.82 63.9173 221.865 64.28 223.188 64.28C223.871 64.28 224.681 64.0667 225.62 63.64C226.559 63.2133 227.412 62.6587 228.18 61.976C228.649 61.5493 229.119 61.336 229.588 61.336C230.1 61.336 230.505 61.6347 230.804 62.232C231.145 62.7867 231.316 63.4693 231.316 64.28C231.316 65.0907 231.145 65.88 230.804 66.648C230.505 67.416 230.036 68.056 229.396 68.568C227.177 70.4027 224.66 71.32 221.844 71.32C217.791 71.32 214.825 69.6347 212.948 66.264C211.071 62.8507 210.132 58.4133 210.132 52.952C210.132 51.0747 210.196 49.176 210.324 47.256H207.828C206.548 47.256 205.673 47.0213 205.204 46.552C204.777 46.0827 204.564 45.336 204.564 44.312C204.564 41.9227 205.524 40.728 207.444 40.728H211.092C211.817 36.0347 212.927 31.7467 214.42 27.864C215.913 23.9813 217.705 20.888 219.796 18.584C221.929 16.28 224.212 15.128 226.644 15.128C228.436 15.128 229.844 15.9173 230.868 17.496C231.892 19.0747 232.404 21.0587 232.404 23.448C232.404 30.0613 229.631 35.8213 224.084 40.728H231.252C231.935 40.728 232.425 40.8773 232.724 41.176C233.023 41.4747 233.172 42.0293 233.172 42.84C233.172 45.784 230.761 47.256 225.94 47.256H218.132ZM224.916 21.272C224.276 21.272 223.551 22.0827 222.74 23.704C221.972 25.2827 221.225 27.5013 220.5 30.36C219.817 33.176 219.241 36.312 218.772 39.768C221.289 37.592 223.167 35.16 224.404 32.472C225.684 29.7413 226.324 27.2667 226.324 25.048C226.324 22.5307 225.855 21.272 224.916 21.272Z" fill="white"/>
<path d="M262.554 56.728C263.108 56.728 263.535 56.984 263.833 57.496C264.175 58.008 264.346 58.712 264.346 59.608C264.346 61.3147 263.94 62.6373 263.13 63.576C261.295 65.8373 259.29 67.6933 257.114 69.144C254.938 70.5947 252.442 71.32 249.626 71.32C240.922 71.32 236.57 65.1973 236.57 52.952C236.57 51.0747 236.634 49.176 236.762 47.256H234.266C232.986 47.256 232.111 47.0213 231.642 46.552C231.215 46.0827 231.002 45.336 231.002 44.312C231.002 41.9227 231.962 40.728 233.882 40.728H237.53C238.255 36.0347 239.364 31.7467 240.858 27.864C242.351 23.9813 244.143 20.888 246.234 18.584C248.367 16.28 250.65 15.128 253.082 15.128C254.874 15.128 256.282 15.9173 257.306 17.496C258.33 19.0747 258.842 21.0587 258.842 23.448C258.842 30.0613 256.068 35.8213 250.522 40.728H257.69C258.372 40.728 258.863 40.8773 259.162 41.176C259.46 41.4747 259.61 42.0293 259.61 42.84C259.61 45.784 257.199 47.256 252.378 47.256H244.57C244.484 49.3893 244.442 51.0533 244.442 52.248C244.442 56.6853 244.954 59.8 245.978 61.592C247.044 63.384 248.708 64.28 250.97 64.28C252.804 64.28 254.426 63.7253 255.834 62.616C257.242 61.5067 258.906 59.8427 260.826 57.624C261.338 57.0267 261.914 56.728 262.554 56.728ZM251.354 21.272C250.714 21.272 249.988 22.0827 249.178 23.704C248.41 25.2827 247.663 27.5013 246.938 30.36C246.255 33.176 245.679 36.312 245.21 39.768C247.727 37.592 249.604 35.16 250.842 32.472C252.122 29.7413 252.762 27.2667 252.762 25.048C252.762 22.5307 252.292 21.272 251.354 21.272ZM291.775 51.352C292.329 51.352 292.756 51.6293 293.055 52.184C293.353 52.7387 293.503 53.4427 293.503 54.296C293.503 56.344 292.884 57.56 291.647 57.944C289.087 58.84 286.271 59.352 283.199 59.48C282.388 63.064 280.788 65.944 278.399 68.12C276.009 70.2533 273.3 71.32 270.271 71.32C267.711 71.32 265.513 70.7013 263.679 69.464C261.887 68.2267 260.521 66.584 259.583 64.536C258.644 62.488 258.174 60.2693 258.174 57.88C258.174 54.6373 258.793 51.7573 260.031 49.24C261.268 46.68 262.975 44.696 265.151 43.288C267.327 41.8373 269.737 41.112 272.383 41.112C275.625 41.112 278.228 42.2427 280.191 44.504C282.196 46.7227 283.369 49.4747 283.711 52.76C285.716 52.632 288.105 52.2053 290.879 51.48C291.22 51.3947 291.519 51.352 291.775 51.352ZM270.783 64.536C272.148 64.536 273.321 63.9813 274.303 62.872C275.327 61.7627 276.009 60.1627 276.351 58.072C275.028 57.176 274.004 56.0027 273.279 54.552C272.596 53.1013 272.255 51.5653 272.255 49.944C272.255 49.2613 272.319 48.5787 272.447 47.896H272.127C270.42 47.896 268.991 48.728 267.839 50.392C266.729 52.0133 266.175 54.3173 266.175 57.304C266.175 59.6507 266.623 61.4427 267.519 62.68C268.457 63.9173 269.545 64.536 270.783 64.536ZM320.65 51.352C321.204 51.352 321.631 51.6293 321.93 52.184C322.228 52.7387 322.378 53.4427 322.378 54.296C322.378 56.344 321.759 57.56 320.522 57.944C317.962 58.84 315.146 59.352 312.074 59.48C311.263 63.064 309.663 65.944 307.274 68.12C304.884 70.2533 302.175 71.32 299.146 71.32C296.586 71.32 294.388 70.7013 292.554 69.464C290.762 68.2267 289.396 66.584 288.458 64.536C287.519 62.488 287.049 60.2693 287.049 57.88C287.049 54.6373 287.668 51.7573 288.906 49.24C290.143 46.68 291.85 44.696 294.026 43.288C296.202 41.8373 298.612 41.112 301.258 41.112C304.5 41.112 307.103 42.2427 309.066 44.504C311.071 46.7227 312.244 49.4747 312.586 52.76C314.591 52.632 316.98 52.2053 319.754 51.48C320.095 51.3947 320.394 51.352 320.65 51.352ZM299.658 64.536C301.023 64.536 302.196 63.9813 303.178 62.872C304.202 61.7627 304.884 60.1627 305.226 58.072C303.903 57.176 302.879 56.0027 302.154 54.552C301.471 53.1013 301.13 51.5653 301.13 49.944C301.13 49.2613 301.194 48.5787 301.322 47.896H301.002C299.295 47.896 297.866 48.728 296.714 50.392C295.604 52.0133 295.05 54.3173 295.05 57.304C295.05 59.6507 295.498 61.4427 296.394 62.68C297.332 63.9173 298.42 64.536 299.658 64.536ZM341.141 56.728C341.695 56.728 342.122 56.984 342.421 57.496C342.762 58.008 342.933 58.712 342.933 59.608C342.933 61.3147 342.527 62.6373 341.717 63.576C339.882 65.8373 337.877 67.6933 335.701 69.144C333.567 70.5947 331.135 71.32 328.405 71.32C324.65 71.32 321.855 69.6133 320.021 66.2C318.229 62.7867 317.333 58.3707 317.333 52.952C317.333 47.7467 317.994 41.816 319.317 35.16C320.682 28.504 322.666 22.7867 325.269 18.008C327.914 13.2293 331.05 10.84 334.677 10.84C336.725 10.84 338.325 11.8 339.477 13.72C340.671 15.5973 341.269 18.3067 341.269 21.848C341.269 26.9253 339.861 32.8133 337.045 39.512C334.229 46.2107 330.41 52.8453 325.589 59.416C325.887 61.1653 326.378 62.424 327.061 63.192C327.743 63.9173 328.639 64.28 329.749 64.28C331.498 64.28 333.034 63.7893 334.357 62.808C335.679 61.784 337.365 60.056 339.413 57.624C339.925 57.0267 340.501 56.728 341.141 56.728ZM333.269 17.176C332.287 17.176 331.178 18.9467 329.941 22.488C328.703 26.0293 327.615 30.424 326.677 35.672C325.738 40.92 325.226 45.9547 325.141 50.776C328.17 45.784 330.581 40.792 332.373 35.8C334.165 30.7653 335.061 26.1787 335.061 22.04C335.061 18.7973 334.463 17.176 333.269 17.176ZM349.664 72.728C347.445 72.728 345.738 72.216 344.544 71.192C343.392 70.168 342.816 69.016 342.816 67.736C342.816 66.6267 343.221 65.6667 344.032 64.856C344.842 64.0453 346.037 63.64 347.616 63.64C348.17 63.64 348.81 63.704 349.536 63.832C350.304 63.9173 350.88 63.9813 351.264 64.024C351.221 62.9147 350.965 61.8693 350.496 60.888C350.069 59.9067 349.514 58.968 348.832 58.072C348.149 57.1333 347.509 56.3227 346.912 55.64C345.589 58.1573 344.266 60.248 342.944 61.912C341.664 63.576 340.256 65.1547 338.72 66.648C337.952 67.416 337.141 67.8 336.288 67.8C335.605 67.8 335.05 67.5653 334.623 67.096C334.197 66.584 333.983 65.9653 333.983 65.24C333.983 64.3867 334.282 63.5973 334.88 62.872L335.712 61.848C338.058 58.9467 339.829 56.5573 341.024 54.68C341.792 53.4427 342.56 51.9707 343.328 50.264C344.138 48.5573 345.184 46.232 346.464 43.288C347.274 41.4107 348.96 40.472 351.52 40.472C352.714 40.472 353.546 40.5787 354.016 40.792C354.485 41.0053 354.72 41.3467 354.72 41.816C354.72 42.072 354.634 42.4773 354.464 43.032C354.293 43.5867 354.058 44.1413 353.76 44.696C352.992 46.232 352.608 47.5333 352.608 48.6C352.608 49.24 352.821 49.944 353.248 50.712C353.717 51.48 354.421 52.44 355.36 53.592C356.725 55.384 357.749 56.92 358.432 58.2C359.157 59.4373 359.52 60.8027 359.52 62.296C359.52 64.088 359.093 65.7947 358.24 67.416C357.429 68.9947 356.277 70.2747 354.784 71.256C353.29 72.2373 351.584 72.728 349.664 72.728Z" fill="#090979"/>
<path d="M6.7357 49.363C5.8997 49.363 5.1197 48.836 4.8397 48C2.7277 41.68 3.9197 24.928 21.2277 16.312C26.4877 13.688 31.5837 12.36 36.3757 12.36C49.3237 12.36 56.7637 21.724 60.3397 26.22C60.9717 27.016 61.0647 28.352 60.3397 29.072C57.1677 32.248 52.9317 35.24 47.4157 38.216C37.5757 43.524 27.2357 45.317 18.9277 46.752C14.4357 47.527 10.5557 48.195 7.3677 49.26C7.1557 49.336 6.9397 49.363 6.7357 49.363Z" fill="white"/>
<path d="M92.7477 17.276C89.3087 12.792 84.4517 10 80.0757 10C77.5117 10 73.8507 10.92 70.9837 15.312C69.4877 17.596 68.6747 19.956 67.8917 22.232C65.8437 28.16 63.7287 34.296 49.2437 42.108C39.9797 47.104 30.4157 48.764 21.9797 50.229C11.8837 51.981 3.16369 53.484 0.155686 60.72C-0.120314 61.38 -0.0243137 62.136 0.403686 62.7C0.831686 63.271 1.52769 63.568 2.24369 63.471C4.91169 63.148 8.37569 63.635 11.9797 64.339C11.4917 64.923 10.9357 65.484 10.4157 66.011C8.89569 67.551 7.31969 69.144 7.78769 71.179C8.21969 73.075 10.2037 73.976 11.6517 74.492C13.2477 75.06 15.0237 75.359 16.7837 75.359C21.7477 75.359 25.6477 73.044 27.3797 69.204C34.1957 70.351 41.3277 70.456 47.5517 70.456L54.1077 70.432C54.3727 70.657 54.8207 71.096 55.1647 71.432C57.1807 73.456 60.5567 76.836 66.0487 76.836C66.5657 76.836 67.1047 76.804 67.7127 76.732C70.4607 76.324 73.1157 75.664 74.0087 73.584C74.9167 71.472 73.5167 69.492 71.9047 67.195C69.9807 64.456 67.5847 61.068 67.9127 56.584C68.6957 54.996 69.3847 53.288 70.0967 51.516C72.0127 46.756 73.9967 41.832 78.5767 37.464C80.3007 38.836 82.6647 39.66 85.0967 39.66C86.8527 39.66 88.6007 39.252 90.2767 38.46C92.7727 37.288 94.6927 34.592 95.5417 31.072C96.7077 26.244 95.6637 21.088 92.7477 17.276ZM81.5957 26.444C80.4917 26.444 79.5957 25.548 79.5957 24.444C79.5957 23.34 80.4917 22.444 81.5957 22.444C82.6957 22.444 83.5957 23.34 83.5957 24.444C83.5957 25.548 82.7037 26.444 81.5957 26.444Z" fill="white"/>
</svg>
