<svg width="242" height="63" viewBox="0 0 242 63" fill="none" xmlns="http://www.w3.org/2000/svg">
<path d="M31.741 46.728C32.2957 46.728 32.7223 46.984 33.021 47.496C33.3623 48.008 33.533 48.712 33.533 49.608C33.533 51.3147 33.1277 52.6373 32.317 53.576C30.4823 55.8373 28.477 57.6933 26.301 59.144C24.125 60.5947 21.629 61.32 18.813 61.32C10.109 61.32 5.757 55.1973 5.757 42.952C5.757 41.0747 5.821 39.176 5.949 37.256H3.453C2.173 37.256 1.29833 37.0213 0.829 36.552C0.402333 36.0827 0.189 35.336 0.189 34.312C0.189 31.9227 1.149 30.728 3.069 30.728H6.717C7.44233 26.0347 8.55167 21.7467 10.045 17.864C11.5383 13.9813 13.3303 10.888 15.421 8.584C17.5543 6.28 19.837 5.128 22.269 5.128C24.061 5.128 25.469 5.91733 26.493 7.496C27.517 9.07467 28.029 11.0587 28.029 13.448C28.029 20.0613 25.2557 25.8213 19.709 30.728H26.877C27.5597 30.728 28.0503 30.8773 28.349 31.176C28.6477 31.4747 28.797 32.0293 28.797 32.84C28.797 35.784 26.3863 37.256 21.565 37.256H13.757C13.6717 39.3893 13.629 41.0533 13.629 42.248C13.629 46.6853 14.141 49.8 15.165 51.592C16.2317 53.384 17.8957 54.28 20.157 54.28C21.9917 54.28 23.613 53.7253 25.021 52.616C26.429 51.5067 28.093 49.8427 30.013 47.624C30.525 47.0267 31.101 46.728 31.741 46.728ZM20.541 11.272C19.901 11.272 19.1757 12.0827 18.365 13.704C17.597 15.2827 16.8503 17.5013 16.125 20.36C15.4423 23.176 14.8663 26.312 14.397 29.768C16.9143 27.592 18.7917 25.16 20.029 22.472C21.309 19.7413 21.949 17.2667 21.949 15.048C21.949 12.5307 21.4797 11.272 20.541 11.272ZM34.85 61.32C32.93 61.32 31.3513 60.4453 30.114 58.696C28.9193 56.904 28.322 54.6853 28.322 52.04C28.322 48.84 28.5353 45.9173 28.962 43.272C29.3887 40.584 30.0927 37.7467 31.074 34.76C31.5007 33.48 32.098 32.5627 32.866 32.008C33.634 31.4533 34.85 31.176 36.514 31.176C37.4527 31.176 38.0927 31.3253 38.434 31.624C38.818 31.9227 39.01 32.3707 39.01 32.968C39.01 33.3093 38.7753 34.4613 38.306 36.424C37.8793 38.0027 37.538 39.432 37.282 40.712C36.4287 45.192 36.002 48.1787 36.002 49.672C36.002 50.568 36.1087 51.208 36.322 51.592C36.5353 51.9333 36.8767 52.104 37.346 52.104C37.986 52.104 38.7753 51.464 39.714 50.184C40.6953 48.904 41.7193 46.9627 42.786 44.36C43.8953 41.7573 44.962 38.5573 45.986 34.76C46.3273 33.48 46.8393 32.5627 47.522 32.008C48.2473 31.4533 49.314 31.176 50.722 31.176C51.7033 31.176 52.386 31.304 52.77 31.56C53.154 31.7733 53.346 32.2 53.346 32.84C53.346 33.9067 52.8127 36.8293 51.746 41.608C50.5513 47.0693 49.954 50.44 49.954 51.72C49.954 52.5307 50.1247 53.1707 50.466 53.64C50.8073 54.0667 51.2553 54.28 51.81 54.28C52.6633 54.28 53.666 53.768 54.818 52.744C56.0127 51.6773 57.5913 49.9707 59.554 47.624C60.066 47.0267 60.642 46.728 61.282 46.728C61.8367 46.728 62.2633 46.984 62.562 47.496C62.9033 48.008 63.074 48.712 63.074 49.608C63.074 51.3147 62.6687 52.6373 61.858 53.576C60.0233 55.8373 58.0393 57.6933 55.906 59.144C53.8153 60.5947 51.426 61.32 48.738 61.32C46.69 61.32 45.1753 60.5307 44.194 58.952C43.2553 57.3733 42.786 55.1547 42.786 52.296C42.0607 55.1973 40.9727 57.4373 39.522 59.016C38.0713 60.552 36.514 61.32 34.85 61.32ZM83.7405 39.944C84.6792 39.944 85.4685 40.2853 86.1085 40.968C86.7912 41.608 87.1325 42.4187 87.1325 43.4C87.1325 43.9547 87.0045 44.552 86.7485 45.192C86.0658 46.7707 85.1058 48.0933 83.8685 49.16C82.6312 50.2267 81.2658 50.76 79.7725 50.76C78.5778 50.76 77.5538 50.3333 76.7005 49.48C75.8898 48.6267 75.4845 47.4747 75.4845 46.024C75.4845 45.2133 75.5272 44.3387 75.6125 43.4C75.6978 42.7173 75.7405 42.248 75.7405 41.992C75.7405 41.6507 75.6552 41.3947 75.4845 41.224C75.3565 41.0533 75.1858 40.968 74.9725 40.968C74.3752 40.968 73.5645 41.6933 72.5405 43.144C71.5165 44.552 70.4925 46.4293 69.4685 48.776C68.4445 51.1227 67.6125 53.5973 66.9725 56.2C66.5032 58.248 65.9698 59.6133 65.3725 60.296C64.7752 60.9787 63.7938 61.32 62.4285 61.32C60.8072 61.32 59.6552 60.4667 58.9725 58.76C58.3325 57.0533 58.0125 54.3227 58.0125 50.568C58.0125 45.0213 58.8018 39.752 60.3805 34.76C60.7645 33.5227 61.3832 32.6267 62.2365 32.072C63.1325 31.4747 64.3698 31.176 65.9485 31.176C66.8018 31.176 67.3992 31.2827 67.7405 31.496C68.0818 31.7093 68.2525 32.1147 68.2525 32.712C68.2525 33.3947 67.9325 34.9307 67.2925 37.32C66.8658 39.0267 66.5245 40.52 66.2685 41.8C66.0125 43.08 65.7992 44.6587 65.6285 46.536C67.0365 42.8667 68.6152 39.88 70.3645 37.576C72.1138 35.272 73.8205 33.6293 75.4845 32.648C77.1485 31.6667 78.6632 31.176 80.0285 31.176C81.2658 31.176 82.2045 31.5387 82.8445 32.264C83.5272 32.9467 83.8685 33.9707 83.8685 35.336C83.8685 36.1467 83.6338 37.6827 83.1645 39.944H83.7405ZM100.132 37.256C100.047 39.3893 100.004 41.0533 100.004 42.248C100.004 45.32 100.153 47.7307 100.452 49.48C100.793 51.1867 101.327 52.424 102.052 53.192C102.82 53.9173 103.865 54.28 105.188 54.28C105.871 54.28 106.681 54.0667 107.62 53.64C108.559 53.2133 109.412 52.6587 110.18 51.976C110.649 51.5493 111.119 51.336 111.588 51.336C112.1 51.336 112.505 51.6347 112.804 52.232C113.145 52.7867 113.316 53.4693 113.316 54.28C113.316 55.0907 113.145 55.88 112.804 56.648C112.505 57.416 112.036 58.056 111.396 58.568C109.177 60.4027 106.66 61.32 103.844 61.32C99.7907 61.32 96.8253 59.6347 94.948 56.264C93.0707 52.8507 92.132 48.4133 92.132 42.952C92.132 41.0747 92.196 39.176 92.324 37.256H89.828C88.548 37.256 87.6733 37.0213 87.204 36.552C86.7773 36.0827 86.564 35.336 86.564 34.312C86.564 31.9227 87.524 30.728 89.444 30.728H93.092C93.8173 26.0347 94.9267 21.7467 96.42 17.864C97.9133 13.9813 99.7053 10.888 101.796 8.584C103.929 6.28 106.212 5.128 108.644 5.128C110.436 5.128 111.844 5.91733 112.868 7.496C113.892 9.07467 114.404 11.0587 114.404 13.448C114.404 20.0613 111.631 25.8213 106.084 30.728H113.252C113.935 30.728 114.425 30.8773 114.724 31.176C115.023 31.4747 115.172 32.0293 115.172 32.84C115.172 35.784 112.761 37.256 107.94 37.256H100.132ZM106.916 11.272C106.276 11.272 105.551 12.0827 104.74 13.704C103.972 15.2827 103.225 17.5013 102.5 20.36C101.817 23.176 101.241 26.312 100.772 29.768C103.289 27.592 105.167 25.16 106.404 22.472C107.684 19.7413 108.324 17.2667 108.324 15.048C108.324 12.5307 107.855 11.272 106.916 11.272Z" fill="white"/>
<path d="M144.554 46.728C145.108 46.728 145.535 46.984 145.833 47.496C146.175 48.008 146.346 48.712 146.346 49.608C146.346 51.3147 145.94 52.6373 145.13 53.576C143.295 55.8373 141.29 57.6933 139.114 59.144C136.938 60.5947 134.442 61.32 131.626 61.32C122.922 61.32 118.57 55.1973 118.57 42.952C118.57 41.0747 118.634 39.176 118.762 37.256H116.266C114.986 37.256 114.111 37.0213 113.642 36.552C113.215 36.0827 113.002 35.336 113.002 34.312C113.002 31.9227 113.962 30.728 115.882 30.728H119.53C120.255 26.0347 121.364 21.7467 122.858 17.864C124.351 13.9813 126.143 10.888 128.234 8.584C130.367 6.28 132.65 5.128 135.082 5.128C136.874 5.128 138.282 5.91733 139.306 7.496C140.33 9.07467 140.842 11.0587 140.842 13.448C140.842 20.0613 138.068 25.8213 132.522 30.728H139.69C140.372 30.728 140.863 30.8773 141.162 31.176C141.46 31.4747 141.61 32.0293 141.61 32.84C141.61 35.784 139.199 37.256 134.378 37.256H126.57C126.484 39.3893 126.442 41.0533 126.442 42.248C126.442 46.6853 126.954 49.8 127.978 51.592C129.044 53.384 130.708 54.28 132.97 54.28C134.804 54.28 136.426 53.7253 137.834 52.616C139.242 51.5067 140.906 49.8427 142.826 47.624C143.338 47.0267 143.914 46.728 144.554 46.728ZM133.354 11.272C132.714 11.272 131.988 12.0827 131.178 13.704C130.41 15.2827 129.663 17.5013 128.938 20.36C128.255 23.176 127.679 26.312 127.21 29.768C129.727 27.592 131.604 25.16 132.842 22.472C134.122 19.7413 134.762 17.2667 134.762 15.048C134.762 12.5307 134.292 11.272 133.354 11.272ZM173.775 41.352C174.329 41.352 174.756 41.6293 175.055 42.184C175.353 42.7387 175.503 43.4427 175.503 44.296C175.503 46.344 174.884 47.56 173.647 47.944C171.087 48.84 168.271 49.352 165.199 49.48C164.388 53.064 162.788 55.944 160.399 58.12C158.009 60.2533 155.3 61.32 152.271 61.32C149.711 61.32 147.513 60.7013 145.679 59.464C143.887 58.2267 142.521 56.584 141.583 54.536C140.644 52.488 140.174 50.2693 140.174 47.88C140.174 44.6373 140.793 41.7573 142.031 39.24C143.268 36.68 144.975 34.696 147.151 33.288C149.327 31.8373 151.737 31.112 154.383 31.112C157.625 31.112 160.228 32.2427 162.191 34.504C164.196 36.7227 165.369 39.4747 165.711 42.76C167.716 42.632 170.105 42.2053 172.879 41.48C173.22 41.3947 173.519 41.352 173.775 41.352ZM152.783 54.536C154.148 54.536 155.321 53.9813 156.303 52.872C157.327 51.7627 158.009 50.1627 158.351 48.072C157.028 47.176 156.004 46.0027 155.279 44.552C154.596 43.1013 154.255 41.5653 154.255 39.944C154.255 39.2613 154.319 38.5787 154.447 37.896H154.127C152.42 37.896 150.991 38.728 149.839 40.392C148.729 42.0133 148.175 44.3173 148.175 47.304C148.175 49.6507 148.623 51.4427 149.519 52.68C150.457 53.9173 151.545 54.536 152.783 54.536ZM202.65 41.352C203.204 41.352 203.631 41.6293 203.93 42.184C204.228 42.7387 204.378 43.4427 204.378 44.296C204.378 46.344 203.759 47.56 202.522 47.944C199.962 48.84 197.146 49.352 194.074 49.48C193.263 53.064 191.663 55.944 189.274 58.12C186.884 60.2533 184.175 61.32 181.146 61.32C178.586 61.32 176.388 60.7013 174.554 59.464C172.762 58.2267 171.396 56.584 170.458 54.536C169.519 52.488 169.049 50.2693 169.049 47.88C169.049 44.6373 169.668 41.7573 170.906 39.24C172.143 36.68 173.85 34.696 176.026 33.288C178.202 31.8373 180.612 31.112 183.258 31.112C186.5 31.112 189.103 32.2427 191.066 34.504C193.071 36.7227 194.244 39.4747 194.586 42.76C196.591 42.632 198.98 42.2053 201.754 41.48C202.095 41.3947 202.394 41.352 202.65 41.352ZM181.658 54.536C183.023 54.536 184.196 53.9813 185.178 52.872C186.202 51.7627 186.884 50.1627 187.226 48.072C185.903 47.176 184.879 46.0027 184.154 44.552C183.471 43.1013 183.13 41.5653 183.13 39.944C183.13 39.2613 183.194 38.5787 183.322 37.896H183.002C181.295 37.896 179.866 38.728 178.714 40.392C177.604 42.0133 177.05 44.3173 177.05 47.304C177.05 49.6507 177.498 51.4427 178.394 52.68C179.332 53.9173 180.42 54.536 181.658 54.536ZM223.141 46.728C223.695 46.728 224.122 46.984 224.421 47.496C224.762 48.008 224.933 48.712 224.933 49.608C224.933 51.3147 224.527 52.6373 223.717 53.576C221.882 55.8373 219.877 57.6933 217.701 59.144C215.567 60.5947 213.135 61.32 210.405 61.32C206.65 61.32 203.855 59.6133 202.021 56.2C200.229 52.7867 199.333 48.3707 199.333 42.952C199.333 37.7467 199.994 31.816 201.317 25.16C202.682 18.504 204.666 12.7867 207.269 8.008C209.914 3.22933 213.05 0.839996 216.677 0.839996C218.725 0.839996 220.325 1.8 221.477 3.72C222.671 5.59733 223.269 8.30667 223.269 11.848C223.269 16.9253 221.861 22.8133 219.045 29.512C216.229 36.2107 212.41 42.8453 207.589 49.416C207.887 51.1653 208.378 52.424 209.061 53.192C209.743 53.9173 210.639 54.28 211.749 54.28C213.498 54.28 215.034 53.7893 216.357 52.808C217.679 51.784 219.365 50.056 221.413 47.624C221.925 47.0267 222.501 46.728 223.141 46.728ZM215.269 7.176C214.287 7.176 213.178 8.94667 211.941 12.488C210.703 16.0293 209.615 20.424 208.677 25.672C207.738 30.92 207.226 35.9547 207.141 40.776C210.17 35.784 212.581 30.792 214.373 25.8C216.165 20.7653 217.061 16.1787 217.061 12.04C217.061 8.79733 216.463 7.176 215.269 7.176ZM231.664 62.728C229.445 62.728 227.738 62.216 226.544 61.192C225.392 60.168 224.816 59.016 224.816 57.736C224.816 56.6267 225.221 55.6667 226.032 54.856C226.842 54.0453 228.037 53.64 229.616 53.64C230.17 53.64 230.81 53.704 231.536 53.832C232.304 53.9173 232.88 53.9813 233.264 54.024C233.221 52.9147 232.965 51.8693 232.496 50.888C232.069 49.9067 231.514 48.968 230.832 48.072C230.149 47.1333 229.509 46.3227 228.912 45.64C227.589 48.1573 226.266 50.248 224.944 51.912C223.664 53.576 222.256 55.1547 220.72 56.648C219.952 57.416 219.141 57.8 218.288 57.8C217.605 57.8 217.05 57.5653 216.623 57.096C216.197 56.584 215.983 55.9653 215.983 55.24C215.983 54.3867 216.282 53.5973 216.88 52.872L217.712 51.848C220.058 48.9467 221.829 46.5573 223.024 44.68C223.792 43.4427 224.56 41.9707 225.328 40.264C226.138 38.5573 227.184 36.232 228.464 33.288C229.274 31.4107 230.96 30.472 233.52 30.472C234.714 30.472 235.546 30.5787 236.016 30.792C236.485 31.0053 236.72 31.3467 236.72 31.816C236.72 32.072 236.634 32.4773 236.464 33.032C236.293 33.5867 236.058 34.1413 235.76 34.696C234.992 36.232 234.608 37.5333 234.608 38.6C234.608 39.24 234.821 39.944 235.248 40.712C235.717 41.48 236.421 42.44 237.36 43.592C238.725 45.384 239.749 46.92 240.432 48.2C241.157 49.4373 241.52 50.8027 241.52 52.296C241.52 54.088 241.093 55.7947 240.24 57.416C239.429 58.9947 238.277 60.2747 236.784 61.256C235.29 62.2373 233.584 62.728 231.664 62.728Z" fill="#090979"/>
</svg>
