<svg width="346" height="87" viewBox="0 0 346 87" fill="none" xmlns="http://www.w3.org/2000/svg">
<path d="M131.741 56.728C132.296 56.728 132.722 56.984 133.021 57.496C133.362 58.008 133.533 58.712 133.533 59.608C133.533 61.3147 133.128 62.6373 132.317 63.576C130.482 65.8373 128.477 67.6933 126.301 69.144C124.125 70.5947 121.629 71.32 118.813 71.32C110.109 71.32 105.757 65.1973 105.757 52.952C105.757 51.0747 105.821 49.176 105.949 47.256H103.453C102.173 47.256 101.298 47.0213 100.829 46.552C100.402 46.0827 100.189 45.336 100.189 44.312C100.189 41.9227 101.149 40.728 103.069 40.728H106.717C107.442 36.0347 108.552 31.7467 110.045 27.864C111.538 23.9813 113.33 20.888 115.421 18.584C117.554 16.28 119.837 15.128 122.269 15.128C124.061 15.128 125.469 15.9173 126.493 17.496C127.517 19.0747 128.029 21.0587 128.029 23.448C128.029 30.0613 125.256 35.8213 119.709 40.728H126.877C127.56 40.728 128.05 40.8773 128.349 41.176C128.648 41.4747 128.797 42.0293 128.797 42.84C128.797 45.784 126.386 47.256 121.565 47.256H113.757C113.672 49.3893 113.629 51.0533 113.629 52.248C113.629 56.6853 114.141 59.8 115.165 61.592C116.232 63.384 117.896 64.28 120.157 64.28C121.992 64.28 123.613 63.7253 125.021 62.616C126.429 61.5067 128.093 59.8427 130.013 57.624C130.525 57.0267 131.101 56.728 131.741 56.728ZM120.541 21.272C119.901 21.272 119.176 22.0827 118.365 23.704C117.597 25.2827 116.85 27.5013 116.125 30.36C115.442 33.176 114.866 36.312 114.397 39.768C116.914 37.592 118.792 35.16 120.029 32.472C121.309 29.7413 121.949 27.2667 121.949 25.048C121.949 22.5307 121.48 21.272 120.541 21.272ZM134.85 71.32C132.93 71.32 131.351 70.4453 130.114 68.696C128.919 66.904 128.322 64.6853 128.322 62.04C128.322 58.84 128.535 55.9173 128.962 53.272C129.389 50.584 130.093 47.7467 131.074 44.76C131.501 43.48 132.098 42.5627 132.866 42.008C133.634 41.4533 134.85 41.176 136.514 41.176C137.453 41.176 138.093 41.3253 138.434 41.624C138.818 41.9227 139.01 42.3707 139.01 42.968C139.01 43.3093 138.775 44.4613 138.306 46.424C137.879 48.0027 137.538 49.432 137.282 50.712C136.429 55.192 136.002 58.1787 136.002 59.672C136.002 60.568 136.109 61.208 136.322 61.592C136.535 61.9333 136.877 62.104 137.346 62.104C137.986 62.104 138.775 61.464 139.714 60.184C140.695 58.904 141.719 56.9627 142.786 54.36C143.895 51.7573 144.962 48.5573 145.986 44.76C146.327 43.48 146.839 42.5627 147.522 42.008C148.247 41.4533 149.314 41.176 150.722 41.176C151.703 41.176 152.386 41.304 152.77 41.56C153.154 41.7733 153.346 42.2 153.346 42.84C153.346 43.9067 152.813 46.8293 151.746 51.608C150.551 57.0693 149.954 60.44 149.954 61.72C149.954 62.5307 150.125 63.1707 150.466 63.64C150.807 64.0667 151.255 64.28 151.81 64.28C152.663 64.28 153.666 63.768 154.818 62.744C156.013 61.6773 157.591 59.9707 159.554 57.624C160.066 57.0267 160.642 56.728 161.282 56.728C161.837 56.728 162.263 56.984 162.562 57.496C162.903 58.008 163.074 58.712 163.074 59.608C163.074 61.3147 162.669 62.6373 161.858 63.576C160.023 65.8373 158.039 67.6933 155.906 69.144C153.815 70.5947 151.426 71.32 148.738 71.32C146.69 71.32 145.175 70.5307 144.194 68.952C143.255 67.3733 142.786 65.1547 142.786 62.296C142.061 65.1973 140.973 67.4373 139.522 69.016C138.071 70.552 136.514 71.32 134.85 71.32ZM183.741 49.944C184.679 49.944 185.469 50.2853 186.109 50.968C186.791 51.608 187.132 52.4187 187.132 53.4C187.132 53.9547 187.005 54.552 186.749 55.192C186.066 56.7707 185.106 58.0933 183.869 59.16C182.631 60.2267 181.266 60.76 179.773 60.76C178.578 60.76 177.554 60.3333 176.701 59.48C175.89 58.6267 175.485 57.4747 175.485 56.024C175.485 55.2133 175.527 54.3387 175.613 53.4C175.698 52.7173 175.741 52.248 175.741 51.992C175.741 51.6507 175.655 51.3947 175.485 51.224C175.357 51.0533 175.186 50.968 174.973 50.968C174.375 50.968 173.565 51.6933 172.541 53.144C171.517 54.552 170.493 56.4293 169.469 58.776C168.445 61.1227 167.613 63.5973 166.973 66.2C166.503 68.248 165.97 69.6133 165.373 70.296C164.775 70.9787 163.794 71.32 162.429 71.32C160.807 71.32 159.655 70.4667 158.973 68.76C158.333 67.0533 158.013 64.3227 158.013 60.568C158.013 55.0213 158.802 49.752 160.381 44.76C160.765 43.5227 161.383 42.6267 162.237 42.072C163.133 41.4747 164.37 41.176 165.949 41.176C166.802 41.176 167.399 41.2827 167.741 41.496C168.082 41.7093 168.253 42.1147 168.253 42.712C168.253 43.3947 167.933 44.9307 167.293 47.32C166.866 49.0267 166.525 50.52 166.269 51.8C166.013 53.08 165.799 54.6587 165.629 56.536C167.037 52.8667 168.615 49.88 170.365 47.576C172.114 45.272 173.821 43.6293 175.485 42.648C177.149 41.6667 178.663 41.176 180.029 41.176C181.266 41.176 182.205 41.5387 182.845 42.264C183.527 42.9467 183.869 43.9707 183.869 45.336C183.869 46.1467 183.634 47.6827 183.165 49.944H183.741ZM200.132 47.256C200.047 49.3893 200.004 51.0533 200.004 52.248C200.004 55.32 200.153 57.7307 200.452 59.48C200.793 61.1867 201.327 62.424 202.052 63.192C202.82 63.9173 203.865 64.28 205.188 64.28C205.871 64.28 206.681 64.0667 207.62 63.64C208.559 63.2133 209.412 62.6587 210.18 61.976C210.649 61.5493 211.119 61.336 211.588 61.336C212.1 61.336 212.505 61.6347 212.804 62.232C213.145 62.7867 213.316 63.4693 213.316 64.28C213.316 65.0907 213.145 65.88 212.804 66.648C212.505 67.416 212.036 68.056 211.396 68.568C209.177 70.4027 206.66 71.32 203.844 71.32C199.791 71.32 196.825 69.6347 194.948 66.264C193.071 62.8507 192.132 58.4133 192.132 52.952C192.132 51.0747 192.196 49.176 192.324 47.256H189.828C188.548 47.256 187.673 47.0213 187.204 46.552C186.777 46.0827 186.564 45.336 186.564 44.312C186.564 41.9227 187.524 40.728 189.444 40.728H193.092C193.817 36.0347 194.927 31.7467 196.42 27.864C197.913 23.9813 199.705 20.888 201.796 18.584C203.929 16.28 206.212 15.128 208.644 15.128C210.436 15.128 211.844 15.9173 212.868 17.496C213.892 19.0747 214.404 21.0587 214.404 23.448C214.404 30.0613 211.631 35.8213 206.084 40.728H213.252C213.935 40.728 214.425 40.8773 214.724 41.176C215.023 41.4747 215.172 42.0293 215.172 42.84C215.172 45.784 212.761 47.256 207.94 47.256H200.132ZM206.916 21.272C206.276 21.272 205.551 22.0827 204.74 23.704C203.972 25.2827 203.225 27.5013 202.5 30.36C201.817 33.176 201.241 36.312 200.772 39.768C203.289 37.592 205.167 35.16 206.404 32.472C207.684 29.7413 208.324 27.2667 208.324 25.048C208.324 22.5307 207.855 21.272 206.916 21.272Z" fill="white"/>
<path d="M244.554 56.728C245.108 56.728 245.535 56.984 245.833 57.496C246.175 58.008 246.346 58.712 246.346 59.608C246.346 61.3147 245.94 62.6373 245.13 63.576C243.295 65.8373 241.29 67.6933 239.114 69.144C236.938 70.5947 234.442 71.32 231.626 71.32C222.922 71.32 218.57 65.1973 218.57 52.952C218.57 51.0747 218.634 49.176 218.762 47.256H216.266C214.986 47.256 214.111 47.0213 213.642 46.552C213.215 46.0827 213.002 45.336 213.002 44.312C213.002 41.9227 213.962 40.728 215.882 40.728H219.53C220.255 36.0347 221.364 31.7467 222.858 27.864C224.351 23.9813 226.143 20.888 228.234 18.584C230.367 16.28 232.65 15.128 235.082 15.128C236.874 15.128 238.282 15.9173 239.306 17.496C240.33 19.0747 240.842 21.0587 240.842 23.448C240.842 30.0613 238.068 35.8213 232.522 40.728H239.69C240.372 40.728 240.863 40.8773 241.162 41.176C241.46 41.4747 241.61 42.0293 241.61 42.84C241.61 45.784 239.199 47.256 234.378 47.256H226.57C226.484 49.3893 226.442 51.0533 226.442 52.248C226.442 56.6853 226.954 59.8 227.978 61.592C229.044 63.384 230.708 64.28 232.97 64.28C234.804 64.28 236.426 63.7253 237.834 62.616C239.242 61.5067 240.906 59.8427 242.826 57.624C243.338 57.0267 243.914 56.728 244.554 56.728ZM233.354 21.272C232.714 21.272 231.988 22.0827 231.178 23.704C230.41 25.2827 229.663 27.5013 228.938 30.36C228.255 33.176 227.679 36.312 227.21 39.768C229.727 37.592 231.604 35.16 232.842 32.472C234.122 29.7413 234.762 27.2667 234.762 25.048C234.762 22.5307 234.292 21.272 233.354 21.272ZM273.775 51.352C274.329 51.352 274.756 51.6293 275.055 52.184C275.353 52.7387 275.503 53.4427 275.503 54.296C275.503 56.344 274.884 57.56 273.647 57.944C271.087 58.84 268.271 59.352 265.199 59.48C264.388 63.064 262.788 65.944 260.399 68.12C258.009 70.2533 255.3 71.32 252.271 71.32C249.711 71.32 247.513 70.7013 245.679 69.464C243.887 68.2267 242.521 66.584 241.583 64.536C240.644 62.488 240.174 60.2693 240.174 57.88C240.174 54.6373 240.793 51.7573 242.031 49.24C243.268 46.68 244.975 44.696 247.151 43.288C249.327 41.8373 251.737 41.112 254.383 41.112C257.625 41.112 260.228 42.2427 262.191 44.504C264.196 46.7227 265.369 49.4747 265.711 52.76C267.716 52.632 270.105 52.2053 272.879 51.48C273.22 51.3947 273.519 51.352 273.775 51.352ZM252.783 64.536C254.148 64.536 255.321 63.9813 256.303 62.872C257.327 61.7627 258.009 60.1627 258.351 58.072C257.028 57.176 256.004 56.0027 255.279 54.552C254.596 53.1013 254.255 51.5653 254.255 49.944C254.255 49.2613 254.319 48.5787 254.447 47.896H254.127C252.42 47.896 250.991 48.728 249.839 50.392C248.729 52.0133 248.175 54.3173 248.175 57.304C248.175 59.6507 248.623 61.4427 249.519 62.68C250.457 63.9173 251.545 64.536 252.783 64.536ZM302.65 51.352C303.204 51.352 303.631 51.6293 303.93 52.184C304.228 52.7387 304.378 53.4427 304.378 54.296C304.378 56.344 303.759 57.56 302.522 57.944C299.962 58.84 297.146 59.352 294.074 59.48C293.263 63.064 291.663 65.944 289.274 68.12C286.884 70.2533 284.175 71.32 281.146 71.32C278.586 71.32 276.388 70.7013 274.554 69.464C272.762 68.2267 271.396 66.584 270.458 64.536C269.519 62.488 269.049 60.2693 269.049 57.88C269.049 54.6373 269.668 51.7573 270.906 49.24C272.143 46.68 273.85 44.696 276.026 43.288C278.202 41.8373 280.612 41.112 283.258 41.112C286.5 41.112 289.103 42.2427 291.066 44.504C293.071 46.7227 294.244 49.4747 294.586 52.76C296.591 52.632 298.98 52.2053 301.754 51.48C302.095 51.3947 302.394 51.352 302.65 51.352ZM281.658 64.536C283.023 64.536 284.196 63.9813 285.178 62.872C286.202 61.7627 286.884 60.1627 287.226 58.072C285.903 57.176 284.879 56.0027 284.154 54.552C283.471 53.1013 283.13 51.5653 283.13 49.944C283.13 49.2613 283.194 48.5787 283.322 47.896H283.002C281.295 47.896 279.866 48.728 278.714 50.392C277.604 52.0133 277.05 54.3173 277.05 57.304C277.05 59.6507 277.498 61.4427 278.394 62.68C279.332 63.9173 280.42 64.536 281.658 64.536ZM323.141 56.728C323.695 56.728 324.122 56.984 324.421 57.496C324.762 58.008 324.933 58.712 324.933 59.608C324.933 61.3147 324.527 62.6373 323.717 63.576C321.882 65.8373 319.877 67.6933 317.701 69.144C315.567 70.5947 313.135 71.32 310.405 71.32C306.65 71.32 303.855 69.6133 302.021 66.2C300.229 62.7867 299.333 58.3707 299.333 52.952C299.333 47.7467 299.994 41.816 301.317 35.16C302.682 28.504 304.666 22.7867 307.269 18.008C309.914 13.2293 313.05 10.84 316.677 10.84C318.725 10.84 320.325 11.8 321.477 13.72C322.671 15.5973 323.269 18.3067 323.269 21.848C323.269 26.9253 321.861 32.8133 319.045 39.512C316.229 46.2107 312.41 52.8453 307.589 59.416C307.887 61.1653 308.378 62.424 309.061 63.192C309.743 63.9173 310.639 64.28 311.749 64.28C313.498 64.28 315.034 63.7893 316.357 62.808C317.679 61.784 319.365 60.056 321.413 57.624C321.925 57.0267 322.501 56.728 323.141 56.728ZM315.269 17.176C314.287 17.176 313.178 18.9467 311.941 22.488C310.703 26.0293 309.615 30.424 308.677 35.672C307.738 40.92 307.226 45.9547 307.141 50.776C310.17 45.784 312.581 40.792 314.373 35.8C316.165 30.7653 317.061 26.1787 317.061 22.04C317.061 18.7973 316.463 17.176 315.269 17.176ZM331.664 72.728C329.445 72.728 327.738 72.216 326.544 71.192C325.392 70.168 324.816 69.016 324.816 67.736C324.816 66.6267 325.221 65.6667 326.032 64.856C326.842 64.0453 328.037 63.64 329.616 63.64C330.17 63.64 330.81 63.704 331.536 63.832C332.304 63.9173 332.88 63.9813 333.264 64.024C333.221 62.9147 332.965 61.8693 332.496 60.888C332.069 59.9067 331.514 58.968 330.832 58.072C330.149 57.1333 329.509 56.3227 328.912 55.64C327.589 58.1573 326.266 60.248 324.944 61.912C323.664 63.576 322.256 65.1547 320.72 66.648C319.952 67.416 319.141 67.8 318.288 67.8C317.605 67.8 317.05 67.5653 316.623 67.096C316.197 66.584 315.983 65.9653 315.983 65.24C315.983 64.3867 316.282 63.5973 316.88 62.872L317.712 61.848C320.058 58.9467 321.829 56.5573 323.024 54.68C323.792 53.4427 324.56 51.9707 325.328 50.264C326.138 48.5573 327.184 46.232 328.464 43.288C329.274 41.4107 330.96 40.472 333.52 40.472C334.714 40.472 335.546 40.5787 336.016 40.792C336.485 41.0053 336.72 41.3467 336.72 41.816C336.72 42.072 336.634 42.4773 336.464 43.032C336.293 43.5867 336.058 44.1413 335.76 44.696C334.992 46.232 334.608 47.5333 334.608 48.6C334.608 49.24 334.821 49.944 335.248 50.712C335.717 51.48 336.421 52.44 337.36 53.592C338.725 55.384 339.749 56.92 340.432 58.2C341.157 59.4373 341.52 60.8027 341.52 62.296C341.52 64.088 341.093 65.7947 340.24 67.416C339.429 68.9947 338.277 70.2747 336.784 71.256C335.29 72.2373 333.584 72.728 331.664 72.728Z" fill="#090979"/>
<path d="M6.7357 49.363C5.8997 49.363 5.1197 48.836 4.8397 48C2.7277 41.68 3.9197 24.928 21.2277 16.312C26.4877 13.688 31.5837 12.36 36.3757 12.36C49.3237 12.36 56.7637 21.724 60.3397 26.22C60.9717 27.016 61.0647 28.352 60.3397 29.072C57.1677 32.248 52.9317 35.24 47.4157 38.216C37.5757 43.524 27.2357 45.317 18.9277 46.752C14.4357 47.527 10.5557 48.195 7.3677 49.26C7.1557 49.336 6.9397 49.363 6.7357 49.363Z" fill="white"/>
<path d="M92.7477 17.276C89.3087 12.792 84.4517 10 80.0757 10C77.5117 10 73.8507 10.92 70.9837 15.312C69.4877 17.596 68.6747 19.956 67.8917 22.232C65.8437 28.16 63.7287 34.296 49.2437 42.108C39.9797 47.104 30.4157 48.764 21.9797 50.229C11.8837 51.981 3.16369 53.484 0.155686 60.72C-0.120314 61.38 -0.0243137 62.136 0.403686 62.7C0.831686 63.271 1.52769 63.568 2.24369 63.471C4.91169 63.148 8.37569 63.635 11.9797 64.339C11.4917 64.923 10.9357 65.484 10.4157 66.011C8.89569 67.551 7.31969 69.144 7.78769 71.179C8.21969 73.075 10.2037 73.976 11.6517 74.492C13.2477 75.06 15.0237 75.359 16.7837 75.359C21.7477 75.359 25.6477 73.044 27.3797 69.204C34.1957 70.351 41.3277 70.456 47.5517 70.456L54.1077 70.432C54.3727 70.657 54.8207 71.096 55.1647 71.432C57.1807 73.456 60.5567 76.836 66.0487 76.836C66.5657 76.836 67.1047 76.804 67.7127 76.732C70.4607 76.324 73.1157 75.664 74.0087 73.584C74.9167 71.472 73.5167 69.492 71.9047 67.195C69.9807 64.456 67.5847 61.068 67.9127 56.584C68.6957 54.996 69.3847 53.288 70.0967 51.516C72.0127 46.756 73.9967 41.832 78.5767 37.464C80.3007 38.836 82.6647 39.66 85.0967 39.66C86.8527 39.66 88.6007 39.252 90.2767 38.46C92.7727 37.288 94.6927 34.592 95.5417 31.072C96.7077 26.244 95.6637 21.088 92.7477 17.276ZM81.5957 26.444C80.4917 26.444 79.5957 25.548 79.5957 24.444C79.5957 23.34 80.4917 22.444 81.5957 22.444C82.6957 22.444 83.5957 23.34 83.5957 24.444C83.5957 25.548 82.7037 26.444 81.5957 26.444Z" fill="white"/>
</svg>
