<svg width="321" height="87" viewBox="0 0 321 87" fill="none" xmlns="http://www.w3.org/2000/svg">
<path d="M129.056 53.296C129.472 53.296 129.792 53.488 130.016 53.872C130.272 54.256 130.4 54.784 130.4 55.456C130.4 56.736 130.096 57.728 129.488 58.432C128.112 60.128 126.608 61.52 124.976 62.608C123.344 63.696 121.472 64.24 119.36 64.24C112.832 64.24 109.568 59.648 109.568 50.464C109.568 49.056 109.616 47.632 109.712 46.192H107.84C106.88 46.192 106.224 46.016 105.872 45.664C105.552 45.312 105.392 44.752 105.392 43.984C105.392 42.192 106.112 41.296 107.552 41.296H110.288C110.832 37.776 111.664 34.56 112.784 31.648C113.904 28.736 115.248 26.416 116.816 24.688C118.416 22.96 120.128 22.096 121.952 22.096C123.296 22.096 124.352 22.688 125.12 23.872C125.888 25.056 126.272 26.544 126.272 28.336C126.272 33.296 124.192 37.616 120.032 41.296H125.408C125.92 41.296 126.288 41.408 126.512 41.632C126.736 41.856 126.848 42.272 126.848 42.88C126.848 45.088 125.04 46.192 121.424 46.192H115.568C115.504 47.792 115.472 49.04 115.472 49.936C115.472 53.264 115.856 55.6 116.624 56.944C117.424 58.288 118.672 58.96 120.368 58.96C121.744 58.96 122.96 58.544 124.016 57.712C125.072 56.88 126.32 55.632 127.76 53.968C128.144 53.52 128.576 53.296 129.056 53.296ZM120.656 26.704C120.176 26.704 119.632 27.312 119.024 28.528C118.448 29.712 117.888 31.376 117.344 33.52C116.832 35.632 116.4 37.984 116.048 40.576C117.936 38.944 119.344 37.12 120.272 35.104C121.232 33.056 121.712 31.2 121.712 29.536C121.712 27.648 121.36 26.704 120.656 26.704ZM131.388 64.24C129.948 64.24 128.764 63.584 127.836 62.272C126.94 60.928 126.492 59.264 126.492 57.28C126.492 54.88 126.652 52.688 126.972 50.704C127.292 48.688 127.82 46.56 128.556 44.32C128.876 43.36 129.324 42.672 129.9 42.256C130.476 41.84 131.388 41.632 132.636 41.632C133.34 41.632 133.82 41.744 134.076 41.968C134.364 42.192 134.508 42.528 134.508 42.976C134.508 43.232 134.332 44.096 133.98 45.568C133.66 46.752 133.404 47.824 133.212 48.784C132.572 52.144 132.252 54.384 132.252 55.504C132.252 56.176 132.332 56.656 132.492 56.944C132.652 57.2 132.908 57.328 133.26 57.328C133.74 57.328 134.332 56.848 135.036 55.888C135.772 54.928 136.54 53.472 137.34 51.52C138.172 49.568 138.972 47.168 139.74 44.32C139.996 43.36 140.38 42.672 140.892 42.256C141.436 41.84 142.236 41.632 143.292 41.632C144.028 41.632 144.54 41.728 144.828 41.92C145.116 42.08 145.26 42.4 145.26 42.88C145.26 43.68 144.86 45.872 144.06 49.456C143.164 53.552 142.716 56.08 142.716 57.04C142.716 57.648 142.844 58.128 143.1 58.48C143.356 58.8 143.692 58.96 144.108 58.96C144.748 58.96 145.5 58.576 146.364 57.808C147.26 57.008 148.444 55.728 149.916 53.968C150.3 53.52 150.732 53.296 151.212 53.296C151.628 53.296 151.948 53.488 152.172 53.872C152.428 54.256 152.556 54.784 152.556 55.456C152.556 56.736 152.252 57.728 151.644 58.432C150.268 60.128 148.78 61.52 147.18 62.608C145.612 63.696 143.82 64.24 141.804 64.24C140.268 64.24 139.132 63.648 138.396 62.464C137.692 61.28 137.34 59.616 137.34 57.472C136.796 59.648 135.98 61.328 134.892 62.512C133.804 63.664 132.636 64.24 131.388 64.24ZM168.055 48.208C168.759 48.208 169.351 48.464 169.831 48.976C170.343 49.456 170.599 50.064 170.599 50.8C170.599 51.216 170.503 51.664 170.311 52.144C169.799 53.328 169.079 54.32 168.151 55.12C167.223 55.92 166.199 56.32 165.079 56.32C164.183 56.32 163.415 56 162.775 55.36C162.167 54.72 161.863 53.856 161.863 52.768C161.863 52.16 161.895 51.504 161.959 50.8C162.023 50.288 162.055 49.936 162.055 49.744C162.055 49.488 161.991 49.296 161.863 49.168C161.767 49.04 161.639 48.976 161.479 48.976C161.031 48.976 160.423 49.52 159.655 50.608C158.887 51.664 158.119 53.072 157.351 54.832C156.583 56.592 155.959 58.448 155.479 60.4C155.127 61.936 154.727 62.96 154.279 63.472C153.831 63.984 153.095 64.24 152.071 64.24C150.855 64.24 149.991 63.6 149.479 62.32C148.999 61.04 148.759 58.992 148.759 56.176C148.759 52.016 149.351 48.064 150.535 44.32C150.823 43.392 151.287 42.72 151.927 42.304C152.599 41.856 153.527 41.632 154.711 41.632C155.351 41.632 155.799 41.712 156.055 41.872C156.311 42.032 156.439 42.336 156.439 42.784C156.439 43.296 156.199 44.448 155.719 46.24C155.399 47.52 155.143 48.64 154.951 49.6C154.759 50.56 154.599 51.744 154.471 53.152C155.527 50.4 156.711 48.16 158.023 46.432C159.335 44.704 160.615 43.472 161.863 42.736C163.111 42 164.247 41.632 165.271 41.632C166.199 41.632 166.903 41.904 167.383 42.448C167.895 42.96 168.151 43.728 168.151 44.752C168.151 45.36 167.975 46.512 167.623 48.208H168.055ZM180.349 46.192C180.285 47.792 180.253 49.04 180.253 49.936C180.253 52.24 180.365 54.048 180.589 55.36C180.845 56.64 181.245 57.568 181.789 58.144C182.365 58.688 183.149 58.96 184.141 58.96C184.653 58.96 185.261 58.8 185.965 58.48C186.669 58.16 187.309 57.744 187.885 57.232C188.237 56.912 188.589 56.752 188.941 56.752C189.325 56.752 189.629 56.976 189.853 57.424C190.109 57.84 190.237 58.352 190.237 58.96C190.237 59.568 190.109 60.16 189.853 60.736C189.629 61.312 189.277 61.792 188.797 62.176C187.133 63.552 185.245 64.24 183.133 64.24C180.093 64.24 177.869 62.976 176.461 60.448C175.053 57.888 174.349 54.56 174.349 50.464C174.349 49.056 174.397 47.632 174.493 46.192H172.621C171.661 46.192 171.005 46.016 170.653 45.664C170.333 45.312 170.173 44.752 170.173 43.984C170.173 42.192 170.893 41.296 172.333 41.296H175.069C175.613 37.776 176.445 34.56 177.565 31.648C178.685 28.736 180.029 26.416 181.597 24.688C183.197 22.96 184.909 22.096 186.733 22.096C188.077 22.096 189.133 22.688 189.901 23.872C190.669 25.056 191.053 26.544 191.053 28.336C191.053 33.296 188.973 37.616 184.813 41.296H190.189C190.701 41.296 191.069 41.408 191.293 41.632C191.517 41.856 191.629 42.272 191.629 42.88C191.629 45.088 189.821 46.192 186.205 46.192H180.349ZM185.437 26.704C184.957 26.704 184.413 27.312 183.805 28.528C183.229 29.712 182.669 31.376 182.125 33.52C181.613 35.632 181.181 37.984 180.829 40.576C182.717 38.944 184.125 37.12 185.053 35.104C186.013 33.056 186.493 31.2 186.493 29.536C186.493 27.648 186.141 26.704 185.437 26.704Z" fill="white"/>
<path d="M213.665 53.296C214.081 53.296 214.401 53.488 214.625 53.872C214.881 54.256 215.009 54.784 215.009 55.456C215.009 56.736 214.705 57.728 214.097 58.432C212.721 60.128 211.217 61.52 209.585 62.608C207.953 63.696 206.081 64.24 203.969 64.24C197.441 64.24 194.177 59.648 194.177 50.464C194.177 49.056 194.225 47.632 194.321 46.192H192.449C191.489 46.192 190.833 46.016 190.481 45.664C190.161 45.312 190.001 44.752 190.001 43.984C190.001 42.192 190.721 41.296 192.161 41.296H194.897C195.441 37.776 196.273 34.56 197.393 31.648C198.513 28.736 199.857 26.416 201.425 24.688C203.025 22.96 204.737 22.096 206.561 22.096C207.905 22.096 208.961 22.688 209.729 23.872C210.497 25.056 210.881 26.544 210.881 28.336C210.881 33.296 208.801 37.616 204.641 41.296H210.017C210.529 41.296 210.897 41.408 211.121 41.632C211.345 41.856 211.457 42.272 211.457 42.88C211.457 45.088 209.649 46.192 206.033 46.192H200.177C200.113 47.792 200.081 49.04 200.081 49.936C200.081 53.264 200.465 55.6 201.233 56.944C202.033 58.288 203.281 58.96 204.977 58.96C206.353 58.96 207.569 58.544 208.625 57.712C209.681 56.88 210.929 55.632 212.369 53.968C212.753 53.52 213.185 53.296 213.665 53.296ZM205.265 26.704C204.785 26.704 204.241 27.312 203.633 28.528C203.057 29.712 202.497 31.376 201.953 33.52C201.441 35.632 201.009 37.984 200.657 40.576C202.545 38.944 203.953 37.12 204.881 35.104C205.841 33.056 206.321 31.2 206.321 29.536C206.321 27.648 205.969 26.704 205.265 26.704ZM235.581 49.264C235.997 49.264 236.317 49.472 236.541 49.888C236.765 50.304 236.877 50.832 236.877 51.472C236.877 53.008 236.413 53.92 235.485 54.208C233.565 54.88 231.453 55.264 229.149 55.36C228.541 58.048 227.341 60.208 225.549 61.84C223.757 63.44 221.725 64.24 219.453 64.24C217.533 64.24 215.885 63.776 214.509 62.848C213.165 61.92 212.141 60.688 211.437 59.152C210.733 57.616 210.381 55.952 210.381 54.16C210.381 51.728 210.845 49.568 211.773 47.68C212.701 45.76 213.981 44.272 215.613 43.216C217.245 42.128 219.053 41.584 221.037 41.584C223.469 41.584 225.421 42.432 226.893 44.128C228.397 45.792 229.277 47.856 229.533 50.32C231.037 50.224 232.829 49.904 234.909 49.36C235.165 49.296 235.389 49.264 235.581 49.264ZM219.837 59.152C220.861 59.152 221.741 58.736 222.477 57.904C223.245 57.072 223.757 55.872 224.013 54.304C223.021 53.632 222.253 52.752 221.709 51.664C221.197 50.576 220.941 49.424 220.941 48.208C220.941 47.696 220.989 47.184 221.085 46.672H220.845C219.565 46.672 218.493 47.296 217.629 48.544C216.797 49.76 216.381 51.488 216.381 53.728C216.381 55.488 216.717 56.832 217.389 57.76C218.093 58.688 218.909 59.152 219.837 59.152ZM257.237 49.264C257.653 49.264 257.973 49.472 258.197 49.888C258.421 50.304 258.533 50.832 258.533 51.472C258.533 53.008 258.069 53.92 257.141 54.208C255.221 54.88 253.109 55.264 250.805 55.36C250.197 58.048 248.997 60.208 247.205 61.84C245.413 63.44 243.381 64.24 241.109 64.24C239.189 64.24 237.541 63.776 236.165 62.848C234.821 61.92 233.797 60.688 233.093 59.152C232.389 57.616 232.037 55.952 232.037 54.16C232.037 51.728 232.501 49.568 233.429 47.68C234.357 45.76 235.637 44.272 237.269 43.216C238.901 42.128 240.709 41.584 242.693 41.584C245.125 41.584 247.077 42.432 248.549 44.128C250.053 45.792 250.933 47.856 251.189 50.32C252.693 50.224 254.485 49.904 256.565 49.36C256.821 49.296 257.045 49.264 257.237 49.264ZM241.493 59.152C242.517 59.152 243.397 58.736 244.133 57.904C244.901 57.072 245.413 55.872 245.669 54.304C244.677 53.632 243.909 52.752 243.365 51.664C242.853 50.576 242.597 49.424 242.597 48.208C242.597 47.696 242.645 47.184 242.741 46.672H242.501C241.221 46.672 240.149 47.296 239.285 48.544C238.453 49.76 238.037 51.488 238.037 53.728C238.037 55.488 238.373 56.832 239.045 57.76C239.749 58.688 240.565 59.152 241.493 59.152ZM272.605 53.296C273.021 53.296 273.341 53.488 273.565 53.872C273.821 54.256 273.949 54.784 273.949 55.456C273.949 56.736 273.645 57.728 273.037 58.432C271.661 60.128 270.157 61.52 268.525 62.608C266.925 63.696 265.101 64.24 263.053 64.24C260.237 64.24 258.141 62.96 256.765 60.4C255.421 57.84 254.749 54.528 254.749 50.464C254.749 46.56 255.245 42.112 256.237 37.12C257.261 32.128 258.749 27.84 260.701 24.256C262.685 20.672 265.037 18.88 267.757 18.88C269.293 18.88 270.493 19.6 271.357 21.04C272.253 22.448 272.701 24.48 272.701 27.136C272.701 30.944 271.645 35.36 269.533 40.384C267.421 45.408 264.557 50.384 260.941 55.312C261.165 56.624 261.533 57.568 262.045 58.144C262.557 58.688 263.229 58.96 264.061 58.96C265.373 58.96 266.525 58.592 267.517 57.856C268.509 57.088 269.773 55.792 271.309 53.968C271.693 53.52 272.125 53.296 272.605 53.296ZM266.701 23.632C265.965 23.632 265.133 24.96 264.205 27.616C263.277 30.272 262.461 33.568 261.757 37.504C261.053 41.44 260.669 45.216 260.605 48.832C262.877 45.088 264.685 41.344 266.029 37.6C267.373 33.824 268.045 30.384 268.045 27.28C268.045 24.848 267.597 23.632 266.701 23.632ZM278.998 65.296C277.334 65.296 276.054 64.912 275.158 64.144C274.294 63.376 273.862 62.512 273.862 61.552C273.862 60.72 274.166 60 274.774 59.392C275.382 58.784 276.278 58.48 277.462 58.48C277.878 58.48 278.358 58.528 278.902 58.624C279.478 58.688 279.91 58.736 280.198 58.768C280.166 57.936 279.974 57.152 279.622 56.416C279.302 55.68 278.886 54.976 278.374 54.304C277.862 53.6 277.382 52.992 276.934 52.48C275.942 54.368 274.95 55.936 273.958 57.184C272.998 58.432 271.942 59.616 270.79 60.736C270.214 61.312 269.606 61.6 268.966 61.6C268.454 61.6 268.038 61.424 267.718 61.072C267.398 60.688 267.238 60.224 267.238 59.68C267.238 59.04 267.462 58.448 267.91 57.904L268.534 57.136C270.294 54.96 271.622 53.168 272.518 51.76C273.094 50.832 273.67 49.728 274.246 48.448C274.854 47.168 275.638 45.424 276.598 43.216C277.206 41.808 278.47 41.104 280.39 41.104C281.286 41.104 281.91 41.184 282.262 41.344C282.614 41.504 282.79 41.76 282.79 42.112C282.79 42.304 282.726 42.608 282.598 43.024C282.47 43.44 282.294 43.856 282.07 44.272C281.494 45.424 281.206 46.4 281.206 47.2C281.206 47.68 281.366 48.208 281.686 48.784C282.038 49.36 282.566 50.08 283.27 50.944C284.294 52.288 285.062 53.44 285.574 54.4C286.118 55.328 286.39 56.352 286.39 57.472C286.39 58.816 286.07 60.096 285.43 61.312C284.822 62.496 283.958 63.456 282.838 64.192C281.718 64.928 280.438 65.296 278.998 65.296Z" fill="#090979"/>
<path d="M6.7357 49.363C5.8997 49.363 5.1197 48.836 4.8397 48C2.7277 41.68 3.9197 24.928 21.2277 16.312C26.4877 13.688 31.5837 12.36 36.3757 12.36C49.3237 12.36 56.7637 21.724 60.3397 26.22C60.9717 27.016 61.0647 28.352 60.3397 29.072C57.1677 32.248 52.9317 35.24 47.4157 38.216C37.5757 43.524 27.2357 45.317 18.9277 46.752C14.4357 47.527 10.5557 48.195 7.3677 49.26C7.1557 49.336 6.9397 49.363 6.7357 49.363Z" fill="white"/>
<path d="M92.7477 17.276C89.3087 12.792 84.4517 10 80.0757 10C77.5117 10 73.8507 10.92 70.9837 15.312C69.4877 17.596 68.6747 19.956 67.8917 22.232C65.8437 28.16 63.7287 34.296 49.2437 42.108C39.9797 47.104 30.4157 48.764 21.9797 50.229C11.8837 51.981 3.16369 53.484 0.155686 60.72C-0.120314 61.38 -0.0243137 62.136 0.403686 62.7C0.831686 63.271 1.52769 63.568 2.24369 63.471C4.91169 63.148 8.37569 63.635 11.9797 64.339C11.4917 64.923 10.9357 65.484 10.4157 66.011C8.89569 67.551 7.31969 69.144 7.78769 71.179C8.21969 73.075 10.2037 73.976 11.6517 74.492C13.2477 75.06 15.0237 75.359 16.7837 75.359C21.7477 75.359 25.6477 73.044 27.3797 69.204C34.1957 70.351 41.3277 70.456 47.5517 70.456L54.1077 70.432C54.3727 70.657 54.8207 71.096 55.1647 71.432C57.1807 73.456 60.5567 76.836 66.0487 76.836C66.5657 76.836 67.1047 76.804 67.7127 76.732C70.4607 76.324 73.1157 75.664 74.0087 73.584C74.9167 71.472 73.5167 69.492 71.9047 67.195C69.9807 64.456 67.5847 61.068 67.9127 56.584C68.6957 54.996 69.3847 53.288 70.0967 51.516C72.0127 46.756 73.9967 41.832 78.5767 37.464C80.3007 38.836 82.6647 39.66 85.0967 39.66C86.8527 39.66 88.6007 39.252 90.2767 38.46C92.7727 37.288 94.6927 34.592 95.5417 31.072C96.7077 26.244 95.6637 21.088 92.7477 17.276ZM81.5957 26.444C80.4917 26.444 79.5957 25.548 79.5957 24.444C79.5957 23.34 80.4917 22.444 81.5957 22.444C82.6957 22.444 83.5957 23.34 83.5957 24.444C83.5957 25.548 82.7037 26.444 81.5957 26.444Z" fill="white"/>
</svg>
